<?xml version="1.0" encoding="utf-8"?>
<!-- Generator: Adobe Illustrator 16.0.0, SVG Export Plug-In . SVG Version: 6.00 Build 0)  -->
<!DOCTYPE svg PUBLIC "-//W3C//DTD SVG 1.1//EN" "http://www.w3.org/Graphics/SVG/1.1/DTD/svg11.dtd">
<svg version="1.1" id="Capa_1" xmlns="http://www.w3.org/2000/svg" xmlns:xlink="http://www.w3.org/1999/xlink" x="0px" y="0px"
	 width="595.279px" height="841.89px" viewBox="0 0 595.279 841.89" enable-background="new 0 0 595.279 841.89"
	 xml:space="preserve">
<title>HTML5 Logo</title>
<polygon fill="#E44D26" points="125.153,670.773 86.773,240.292 508.507,240.292 470.086,670.707 297.382,718.585 "/>
<polygon fill="#F16529" points="297.64,681.988 437.194,643.298 470.027,275.49 297.64,275.49 "/>
<polygon fill="#EBEBEB" points="239.745,376.15 169.881,376.15 165.056,322.084 239.745,322.084 239.745,269.287 239.562,269.287 
	107.355,269.287 108.62,283.452 121.595,428.945 239.745,428.945 "/>
<polygon fill="#EBEBEB" points="273.775,604.269 273.544,604.33 214.744,588.453 210.985,546.345 182.413,546.345 157.985,546.345 
	165.382,629.244 273.532,659.267 273.775,659.199 "/>
<path d="M126.011,123.305h26.831v26.509h24.543v-26.509h26.832v80.275h-26.83v-26.881h-24.544v26.881h-26.831L126.011,123.305
	L126.011,123.305z"/>
<path d="M239.5,149.925h-23.62v-26.621h74.084v26.621h-23.631v53.654h-26.832L239.5,149.925L239.5,149.925z"/>
<path d="M301.722,123.305h27.978l17.209,28.206l17.192-28.206h27.987v80.275h-26.72v-39.789l-18.46,28.542h-0.461l-18.473-28.542
	v39.789h-26.253V123.305z"/>
<path d="M405.442,123.305h26.839v53.741h37.731v26.534h-64.57V123.305z"/>
<polygon fill="#FFFFFF" points="337.457,450.299 337.457,503.094 402.471,503.094 396.342,571.569 337.457,587.461 337.457,642.391 
	445.694,612.393 446.488,603.473 458.895,464.477 460.183,450.299 445.955,450.299 "/>
<polygon fill="#FFFFFF" points="297.457,328.287 297.457,361.079 297.457,380.956 297.457,381.084 424.817,381.084 424.817,381.084 
	424.987,381.084 426.046,369.217 428.451,342.452 429.714,328.287 "/>
</svg>
